<svg width="60" height="34" viewBox="0 0 60 34" fill="none" xmlns="http://www.w3.org/2000/svg">
<path fill-rule="evenodd" clip-rule="evenodd" d="M30.2351 0.724784C34.2368 1.01588 36.7745 1.4807 39.8039 2.47732C43.0379 3.54136 45.3519 4.7029 47.6503 6.4162C51.1959 9.05897 54.1165 12.6233 56.3438 17.0256C57.7473 19.7996 58.5638 22.1226 58.9376 24.4048C59.1489 25.6948 59.1303 25.6972 58.385 24.4775C54.0684 17.4138 47.5601 12.2541 39.4824 9.49134C35.2766 8.05295 31.3663 7.40075 26.4827 7.32336C21.9487 7.25143 14.0794 8.93605 9.8697 9.94257C9.96598 9.91958 4.9775 10.4312 9.8697 9.94257C11.7117 9.62255 14.7814 9.2788 17.0675 9.13652C19.0967 9.01026 23.8677 9.08353 25.5354 9.26664C31.6778 9.94114 36.8844 11.5576 41.7688 14.3067C43.0956 15.0534 45.4233 16.5912 46.5783 17.4839C50.96 20.8707 55.2874 25.7381 59.0836 31.5497C59.5876 32.3213 60 32.9682 60 32.9873C60 33.0064 59.6991 32.8227 59.3315 32.5791C57.7561 31.535 55.9079 31.1481 53.2093 31.2973C51.8314 31.3735 50.1921 31.6451 47.5145 32.241C43.9947 33.0242 41.8825 33.3797 39.5255 33.5856C34.188 34.0518 30.8972 33.1931 27.3679 30.4131C25.5297 28.9651 24.1628 27.5097 21.1332 23.7748C18.6174 20.6735 18.0177 19.9929 16.579 18.6074C13.3367 15.4847 10.0716 13.9226 6.78897 13.9238C4.3182 13.9247 2.23508 14.6878 0.611008 16.1872C0.236385 16.533 -0.036705 16.7594 0.00402451 16.6902C1.40124 14.3199 3.88717 11.3418 6.19368 9.27494C11.5538 4.47192 17.8816 1.62088 24.8156 0.884587C25.9638 0.762681 29.3739 0.662071 30.2351 0.724784Z" fill="#9DD748"/>
</svg>
