<svg width="17.283203" height="16.834961" viewBox="0 0 17.2832 16.835" fill="none" xmlns="http://www.w3.org/2000/svg" xmlns:xlink="http://www.w3.org/1999/xlink">
	<desc>
			Created with Pixso.
	</desc>
	<defs/>
	<path id="Icon" d="M11.82 2.65C12.05 1.58 11.35 0.46 10.33 0.12C9.83 -0.07 9.31 -0.03 8.88 0.12C8.44 0.27 8.03 0.55 7.77 0.94L7.77 0.94L5.29 4.63C5.2 4.33 5.05 4.07 4.82 3.85C4.37 3.44 3.75 3.33 3.12 3.33L2.29 3.33C1.66 3.33 1.04 3.44 0.59 3.85C0.13 4.27 0 4.88 0 5.54L0 13.71C0 14.36 0.13 14.97 0.59 15.39C1.04 15.81 1.66 15.91 2.29 15.91L3.12 15.91C3.75 15.91 4.37 15.81 4.82 15.39C5.01 15.22 5.14 15.01 5.24 14.78L7.04 16.18C7.32 16.44 7.69 16.59 8.01 16.68C8.36 16.78 8.73 16.83 9.04 16.83L12.2 16.83C12.85 16.83 13.5 16.59 14.02 16.21C14.53 15.83 14.97 15.29 15.14 14.63L17.13 8.57C17.4 7.82 17.3 7.06 16.87 6.48C16.45 5.9 15.75 5.58 14.95 5.58L11.62 5.58C11.55 5.58 11.49 5.55 11.45 5.51C11.42 5.48 11.39 5.41 11.41 5.3L11.82 2.65ZM5.41 13.33L7.87 15.24L7.9 15.26C7.95 15.32 8.1 15.41 8.35 15.48C8.59 15.55 8.85 15.58 9.04 15.58L12.2 15.58C12.55 15.58 12.95 15.45 13.28 15.2C13.62 14.96 13.85 14.63 13.93 14.3L13.94 14.28L15.95 8.17L15.95 8.16C16.09 7.75 16.02 7.43 15.87 7.22C15.71 7.01 15.41 6.83 14.95 6.83L11.62 6.83C10.75 6.83 10.03 6.09 10.17 5.12L10.17 5.11L10.59 2.42L10.59 2.4C10.69 1.99 10.39 1.45 9.92 1.3L9.91 1.29L9.9 1.29C9.73 1.23 9.51 1.23 9.28 1.31C9.05 1.39 8.88 1.52 8.81 1.64L8.81 1.64L5.41 6.69L5.41 13.33ZM1.25 5.54C1.25 5.03 1.36 4.84 1.44 4.77C1.53 4.68 1.75 4.58 2.29 4.58L3.12 4.58C3.66 4.58 3.87 4.68 3.97 4.77C4.05 4.84 4.16 5.03 4.16 5.54L4.16 13.71C4.16 14.22 4.05 14.4 3.97 14.48C3.87 14.56 3.66 14.66 3.12 14.66L2.29 14.66C1.75 14.66 1.53 14.56 1.44 14.48C1.36 14.4 1.25 14.22 1.25 13.71L1.25 5.54Z" fill="#CE1136" fill-opacity="1.000000" fill-rule="evenodd"/>
</svg>
