<svg width="18.000000" height="17.000000" viewBox="0 0 18 17" fill="none" xmlns="http://www.w3.org/2000/svg" xmlns:xlink="http://www.w3.org/1999/xlink">
	<desc>
			Created with Pixso.
	</desc>
	<defs/>
	<path id="Icon" d="M13.35 17L4.65 17C3.15 17 2.39 17 1.72 16.66C1.12 16.36 0.64 15.89 0.34 15.3C0 14.64 0 13.9 0 12.42L0 6.37C-0.02 6.14 0.01 5.9 0.07 5.68C0.13 5.5 0.22 5.33 0.34 5.18C0.5 5.01 0.69 4.87 0.89 4.76L7.2 0.71C7.58 0.42 8.01 0.2 8.47 0.05C8.82 -0.02 9.18 -0.02 9.53 0.05C9.99 0.2 10.42 0.42 10.8 0.71L17.09 4.74C17.31 4.85 17.5 5 17.66 5.17C17.78 5.32 17.87 5.49 17.93 5.67C17.99 5.9 18 6.13 17.99 6.36L17.99 12.41C17.99 13.89 17.99 14.64 17.65 15.3C17.35 15.89 16.87 16.36 16.28 16.65C15.61 17 14.86 17 13.35 17ZM1.26 6.79L1.26 12.42C1.17 13.2 1.24 13.99 1.47 14.74C1.65 15.1 1.94 15.39 2.3 15.57C3.07 15.78 3.87 15.85 4.66 15.77L13.37 15.77C14.16 15.85 14.97 15.78 15.74 15.57C16.1 15.39 16.39 15.1 16.58 14.74C16.79 13.99 16.86 13.2 16.78 12.42L16.78 6.79L10.84 10.6C10.46 10.9 10.02 11.12 9.56 11.25C9.22 11.34 8.86 11.34 8.51 11.25C8.05 11.12 7.62 10.9 7.23 10.6L1.26 6.79ZM1.78 5.65L1.83 5.65L7.89 9.53C8.14 9.73 8.42 9.89 8.72 10.02C8.88 10.06 9.04 10.06 9.2 10.02C9.5 9.89 9.78 9.73 10.04 9.54L16.1 5.65L16.16 5.65L10.11 1.78C9.86 1.58 9.58 1.42 9.28 1.29C9.12 1.26 8.96 1.26 8.8 1.29C8.5 1.42 8.22 1.58 7.96 1.78L1.91 5.65L1.78 5.65Z" fill="#CE1136" fill-opacity="1.000000" fill-rule="nonzero"/>
</svg>
