<svg width="22" height="23" viewBox="0 0 22 23" fill="none" xmlns="http://www.w3.org/2000/svg">
<path d="M11.871 5.82583C13.0709 6.02693 14.1608 6.59365 15.031 7.46202C15.9011 8.33038 16.4644 9.41812 16.6705 10.6156M12.0542 1.8999C14.1883 2.26096 16.1347 3.271 17.6826 4.81121C19.2306 6.35598 20.2381 8.29838 20.5999 10.4282M18.9329 18.9016C18.9329 18.9016 17.7742 20.0396 17.4903 20.3732C17.0277 20.8668 16.4827 21.0999 15.7683 21.0999C15.6996 21.0999 15.6263 21.0999 15.5576 21.0953C14.1974 21.0085 12.9335 20.4783 11.9855 20.0259C9.39335 18.7736 7.11724 16.9957 5.22582 14.7426C3.66415 12.8641 2.61997 11.1274 1.92844 9.26272C1.50253 8.1247 1.34682 7.23806 1.41551 6.40168C1.46131 5.86695 1.6674 5.42363 2.04751 5.04429L3.60919 3.48581C3.83359 3.27557 4.07174 3.16131 4.3053 3.16131C4.59382 3.16131 4.82739 3.33499 4.97394 3.48124C4.97852 3.48581 4.9831 3.49038 4.98768 3.49495C5.26704 3.75546 5.53266 4.02511 5.81202 4.31304C5.95399 4.45929 6.10054 4.60554 6.24709 4.75636L7.49735 6.00407C7.9828 6.48852 7.9828 6.93641 7.49735 7.42087C7.36454 7.55341 7.23631 7.68595 7.1035 7.81392C6.7188 8.20697 7.021 7.90539 6.62257 8.26187C6.61341 8.27101 6.60425 8.27558 6.59967 8.28472C6.20582 8.67777 6.27909 9.06168 6.36153 9.32219C6.36611 9.3359 6.37069 9.34961 6.37527 9.36332C6.70042 10.1494 7.15839 10.8898 7.85451 11.7719L7.85909 11.7765C9.12308 13.3304 10.4558 14.5415 11.9259 15.4693C12.1136 15.5881 12.306 15.6841 12.4892 15.7755C12.654 15.8578 12.8097 15.9355 12.9426 16.0177C12.9609 16.0269 12.9792 16.0406 12.9975 16.0497C13.1532 16.1274 13.2998 16.164 13.4509 16.164C13.831 16.164 14.0692 15.9263 14.147 15.8486L15.0447 14.9528C15.2004 14.7974 15.4477 14.61 15.7362 14.61C16.0202 14.61 16.2537 14.7883 16.3957 14.9436C16.4003 14.9482 16.4003 14.9482 16.4049 14.9528L18.9283 17.471C19.4 17.9372 18.9329 18.9016 18.9329 18.9016Z" stroke="#CE1136" stroke-width="2" stroke-linecap="round" stroke-linejoin="round"/>
</svg>
