<svg width="17.916016" height="17.916504" viewBox="0 0 17.916 17.9165" fill="none" xmlns="http://www.w3.org/2000/svg" xmlns:xlink="http://www.w3.org/1999/xlink">
	<desc>
			Created with Pixso.
	</desc>
	<defs/>
	<path id="Icon" d="M8.95 1.25C4.7 1.25 1.25 4.7 1.25 8.95C1.25 13.21 4.7 16.66 8.95 16.66C13.21 16.66 16.66 13.21 16.66 8.95C16.66 4.7 13.21 1.25 8.95 1.25ZM0 8.95C0 4.01 4.01 0 8.95 0C13.9 0 17.91 4.01 17.91 8.95C17.91 13.9 13.9 17.91 8.95 17.91C4.01 17.91 0 13.9 0 8.95ZM8.95 3.33C9.3 3.33 9.58 3.61 9.58 3.95L9.58 8.57L12.57 10.06C12.88 10.22 13 10.59 12.85 10.9C12.69 11.21 12.32 11.33 12.01 11.18L8.67 9.51C8.46 9.41 8.33 9.19 8.33 8.95L8.33 3.95C8.33 3.61 8.61 3.33 8.95 3.33Z" fill="#CE1136" fill-opacity="1.000000" fill-rule="evenodd"/>
</svg>
