<svg width="24" height="24" viewBox="0 0 24 24" fill="none" xmlns="http://www.w3.org/2000/svg">
<path fill-rule="evenodd" clip-rule="evenodd" d="M17.5835 6.4999L19.0502 5.3999L19.9502 6.5999L18.4835 7.6999C18.0075 8.05691 17.4285 8.2499 16.8335 8.2499H13.4752C13.1617 8.2499 12.8752 8.42701 12.735 8.70738C12.562 9.05337 12.6517 9.47304 12.9511 9.71799L14.9511 11.3543C16.7218 12.8031 17.6381 15.0501 17.3855 17.324L17.3655 17.5034C17.2785 18.2868 17.086 19.0549 16.7932 19.7868L16.1965 21.2784L14.8038 20.7214L15.4005 19.2297C15.6431 18.6233 15.8026 17.9869 15.8747 17.3377L15.8946 17.1583C16.0911 15.3898 15.3784 13.6421 14.0012 12.5153L12.0013 10.8789C11.1592 10.19 10.9068 9.00966 11.3933 8.03656C11.7876 7.24801 12.5936 6.7499 13.4752 6.7499H16.8335C17.104 6.7499 17.3671 6.66218 17.5835 6.4999Z" fill="#A3ABB3"/>
<path fill-rule="evenodd" clip-rule="evenodd" d="M7.29965 12.1387C7.44066 11.2926 6.70719 10.5592 5.86116 10.7002L2.62306 11.2398L2.37646 9.76025L5.61456 9.22057C7.47582 8.91036 9.08945 10.524 8.77924 12.3853L8.64473 13.1923C8.45803 14.3125 9.02377 15.4235 10.0395 15.9314C11.4031 16.6132 12.1102 18.1506 11.7405 19.6296L11.2274 21.682L9.77216 21.3181L10.2852 19.2658C10.4845 18.4688 10.1035 17.6404 9.36872 17.2731C7.76396 16.4707 6.87018 14.7155 7.16514 12.9457L7.29965 12.1387Z" fill="#A3ABB3"/>
<path fill-rule="evenodd" clip-rule="evenodd" d="M12 20.5C16.6944 20.5 20.5 16.6944 20.5 12C20.5 7.30558 16.6944 3.5 12 3.5C7.30558 3.5 3.5 7.30558 3.5 12C3.5 16.6944 7.30558 20.5 12 20.5ZM12 22C17.5228 22 22 17.5228 22 12C22 6.47715 17.5228 2 12 2C6.47715 2 2 6.47715 2 12C2 17.5228 6.47715 22 12 22Z" fill="#A3ABB3"/>
</svg>
